<?xml version="1.0" standalone="no"?>
<!DOCTYPE svg PUBLIC "-//W3C//DTD SVG 20010904//EN"
 "http://www.w3.org/TR/2001/REC-SVG-20010904/DTD/svg10.dtd">
<svg version="1.0" xmlns="http://www.w3.org/2000/svg"
 width="700.000000pt" height="700.000000pt" viewBox="0 0 700.000000 700.000000"
 preserveAspectRatio="xMidYMid meet">
<metadata>
Created by potrace 1.14, written by Peter Selinger 2001-2017
</metadata>
<g transform="translate(0.000000,700.000000) scale(0.100000,-0.100000)"
fill="#000000" stroke="none">
<path d="M2198 5975 c-2 -2 -28 -6 -58 -9 -236 -26 -484 -117 -691 -254 -121
-80 -220 -167 -336 -295 -77 -85 -212 -304 -260 -422 -49 -121 -90 -269 -110
-400 -9 -65 -11 -354 -3 -413 23 -151 40 -222 80 -337 84 -235 210 -434 388
-611 l62 -62 -65 -47 c-198 -141 -375 -398 -434 -631 -32 -123 -33 -131 -36
-279 -9 -336 106 -622 340 -850 106 -104 104 -102 187 -156 116 -75 216 -118
378 -161 l85 -23 1735 -2 c954 -1 1767 2 1805 7 87 11 129 18 180 31 22 6 47
13 55 14 129 29 366 148 500 253 148 116 323 328 406 494 57 113 114 281 130
383 3 22 8 43 9 46 5 6 18 191 18 239 0 47 -12 189 -18 220 -3 14 -8 39 -10
55 -8 46 -55 206 -72 245 -91 211 -182 349 -328 495 -216 216 -489 362 -770
409 -16 3 -46 8 -65 12 -19 4 -104 7 -189 8 -150 1 -154 2 -173 26 -50 62 -69
84 -127 145 -35 36 -91 89 -124 118 -34 28 -67 58 -75 64 -35 33 -218 147
-310 193 -57 28 -160 69 -230 92 -159 50 -155 48 -159 84 -8 62 -58 232 -94
322 -151 371 -431 668 -792 841 -226 108 -410 151 -669 156 -86 2 -158 2 -160
0z"/>
</g>
</svg>
