<?xml version="1.0" encoding="utf-8"?>
<svg width="60px" height="60px" viewBox="0 0 60 60" version="1.1" xmlns:xlink="http://www.w3.org/1999/xlink" xmlns="http://www.w3.org/2000/svg">
  <defs>
    <linearGradient x1="0.23533332" y1="-0.13713074" x2="0.6280417" y2="1.0208702" id="gradient_1">
      <stop offset="0" stop-color="#8D8D8D" />
      <stop offset="0.95" stop-color="#555555" />
    </linearGradient>
    <linearGradient x1="0.23533332" y1="-0.13713074" x2="0.6280417" y2="1.0208702" id="gradient_2">
      <stop offset="0" stop-color="#8D8D8D" />
      <stop offset="0.95" stop-color="#A2A2A2" />
    </linearGradient>
    <linearGradient x1="0.23533332" y1="-0.13713074" x2="0.6280417" y2="1.0208702" id="gradient_3">
      <stop offset="0" stop-color="#FCFCFC" />
      <stop offset="0.95" stop-color="#C3C9CD" />
    </linearGradient>
    <filter filterUnits="userSpaceOnUse" color-interpolation-filters="sRGB" id="filter_1">
      <feFlood flood-opacity="0" result="BackgroundImageFix" />
      <feColorMatrix in="SourceAlpha" type="matrix" values="0 0 0 0 0 0 0 0 0 0 0 0 0 0 0 0 0 0 127 0" />
      <feOffset dx="0" dy="2" />
      <feGaussianBlur stdDeviation="2" />
      <feColorMatrix type="matrix" values="0 0 0 0 0.39215687 0 0 0 0 0.39215687 0 0 0 0 0.39215687 0 0 0 0.49803922 0" />
      <feBlend mode="normal" in2="BackgroundImageFix" result="effect0_dropShadow" />
      <feBlend mode="normal" in="SourceGraphic" in2="effect0_dropShadow" result="shape" />
    </filter>
    <path d="M0 0L48 0L48 48L0 48L0 0Z" id="path_1" />
    <clipPath id="mask_1">
      <use xlink:href="#path_1" />
    </clipPath>
  </defs>
  <g filter="url(#filter_1)">
    <g id="svg" transform="translate(6 4)">
      <path d="M0 0L48 0L48 48L0 48L0 0Z" id="Background" fill="none" fill-rule="evenodd" stroke="none" />
      <g clip-path="url(#mask_1)">
        <path d="M32.7097 12.9476C32.7097 17.4656 29.0503 21.125 24.5323 21.125C23.3056 21.125 7.72766 21.125 6.47379 21.125C2.89617 21.125 0 18.2288 0 14.6512C0 11.5574 2.16702 8.9679 5.07681 8.32734C6.23528 3.55036 10.5352 0 15.6734 0C19.4282 0 22.7332 1.89444 24.6958 4.77698C29.1389 4.85875 32.7097 8.48407 32.7097 12.9476L32.7097 12.9476Z" transform="translate(15.290344 4)" id="Shape" fill="url(#gradient_1)" fill-rule="evenodd" stroke="none" />
        <path d="M32.7097 12.9476C32.7097 17.4656 29.0503 21.125 24.5323 21.125C23.3056 21.125 7.72766 21.125 6.47379 21.125C2.89617 21.125 0 18.2288 0 14.6512C0 11.5574 2.16702 8.9679 5.07681 8.32734C6.23528 3.55036 10.5352 0 15.6734 0C19.4282 0 22.7332 1.89444 24.6958 4.77698C29.1389 4.85875 32.7097 8.48407 32.7097 12.9476L32.7097 12.9476Z" transform="translate(6.1035156E-05 9)" id="Shape-3" fill="url(#gradient_2)" fill-rule="evenodd" stroke="none" />
        <path d="M48 19C48 25.63 42.63 31 36 31C34.2 31 11.34 31 9.5 31C4.25 31 0 26.75 0 21.5C0 16.96 3.18 13.16 7.45 12.22C9.15 5.21 15.46 0 23 0C28.51 0 33.36 2.78 36.24 7.01C42.76 7.13 48 12.45 48 19L48 19Z" transform="translate(0.00012207031 11)" id="Shape-2" fill="url(#gradient_3)" fill-rule="evenodd" stroke="none" />
      </g>
    </g>
  </g>
</svg>