<?xml version="1.0" encoding="utf-8"?>
<svg width="60px" height="60px" viewBox="0 0 60 60" version="1.1" xmlns:xlink="http://www.w3.org/1999/xlink" xmlns="http://www.w3.org/2000/svg">
  <defs>
    <linearGradient x1="0.43282503" y1="0.0031599998" x2="0.54045004" y2="1.01792" id="gradient_1">
      <stop offset="0" stop-color="#7884FF" />
      <stop offset="0.398" stop-color="#5B62BC" />
      <stop offset="0.79599994" stop-color="#252C75" />
      <stop offset="1" stop-color="#0B115B" />
    </linearGradient>
    <linearGradient x1="0.43282503" y1="0.0031599998" x2="0.54045004" y2="1.01792" id="gradient_2">
      <stop offset="0" stop-color="#656FD1" />
      <stop offset="0.39799997" stop-color="#3F47B7" />
      <stop offset="0.79599994" stop-color="#232C9B" />
      <stop offset="1" stop-color="#060D65" />
    </linearGradient>
    <linearGradient x1="0.43282503" y1="0.0031599998" x2="0.54045004" y2="1.01792" id="gradient_3">
      <stop offset="0" stop-color="#BAC0FF" />
      <stop offset="0.39799997" stop-color="#8A91E7" />
      <stop offset="0.79599994" stop-color="#6069D1" />
      <stop offset="1" stop-color="#5059C9" />
    </linearGradient>
    <filter filterUnits="userSpaceOnUse" color-interpolation-filters="sRGB" id="filter_1">
      <feFlood flood-opacity="0" result="BackgroundImageFix" />
      <feColorMatrix in="SourceAlpha" type="matrix" values="0 0 0 0 0 0 0 0 0 0 0 0 0 0 0 0 0 0 127 0" />
      <feOffset dx="0" dy="2" />
      <feGaussianBlur stdDeviation="2" />
      <feColorMatrix type="matrix" values="0 0 0 0 0.39215687 0 0 0 0 0.39215687 0 0 0 0 0.39215687 0 0 0 0.49803922 0" />
      <feBlend mode="normal" in2="BackgroundImageFix" result="effect0_dropShadow" />
      <feBlend mode="normal" in="SourceGraphic" in2="effect0_dropShadow" result="shape" />
    </filter>
    <path d="M0 0L48 0L48 48L0 48L0 0Z" id="path_1" />
    <clipPath id="mask_1">
      <use xlink:href="#path_1" />
    </clipPath>
  </defs>
  <g filter="url(#filter_1)">
    <g id="svg" transform="translate(6 4)">
      <path d="M0 0L48 0L48 48L0 48L0 0Z" id="Background" fill="none" fill-rule="evenodd" stroke="none" />
      <g clip-path="url(#mask_1)">
        <path d="M25.5 4.25C25.2186 4.25 24.9415 4.2653 24.667 4.29165C22.7298 1.6915 19.6418 0 16.15 0C11.294 0 7.208 3.26145 5.9398 7.71035C2.59165 8.13365 0 10.9862 0 14.45C0 18.2053 3.0447 21.25 6.8 21.25C8.3453 21.25 23.891 21.25 25.5 21.25C30.1945 21.25 34 17.4445 34 12.75C34 8.05545 30.1945 4.25 25.5 4.25L25.5 4.25Z" transform="translate(0 7)" id="Shape-2" fill="url(#gradient_1)" fill-rule="evenodd" stroke="none" />
        <path d="M25.2 4.2C24.922 4.2 24.6481 4.21512 24.3768 4.24116C22.4624 1.6716 19.4107 0 15.96 0C11.1611 0 7.1232 3.22308 5.86992 7.61964C2.56116 8.03796 0 10.857 0 14.28C0 17.9911 3.00888 21 6.72 21C8.24712 21 23.6099 21 25.2 21C29.8393 21 33.6 17.2393 33.6 12.6C33.6 7.96068 29.8393 4.2 25.2 4.2L25.2 4.2Z" transform="translate(14.399963 3)" id="Shape-3" fill="url(#gradient_2)" fill-rule="evenodd" stroke="none" />
        <path d="M36 6C35.6028 6 35.2116 6.0216 34.824 6.0588C32.0892 2.388 27.7296 0 22.8 0C15.9444 0 10.176 4.6044 8.3856 10.8852C3.6588 11.4828 0 15.51 0 20.4C0 25.7016 4.2984 30 9.6 30C11.7816 30 33.7284 30 36 30C42.6276 30 48 24.6276 48 18C48 11.3724 42.6276 6 36 6L36 6Z" transform="translate(0 9)" id="Shape-4" fill="url(#gradient_3)" fill-rule="evenodd" stroke="none" />
      </g>
    </g>
  </g>
</svg>