<?xml version="1.0" encoding="utf-8"?>
<svg width="60px" height="60px" viewBox="0 0 60 60" version="1.1" xmlns:xlink="http://www.w3.org/1999/xlink" xmlns="http://www.w3.org/2000/svg">
  <defs>
    <linearGradient x1="0.032124996" y1="0.032124996" x2="0.8528125" y2="0.8528125" id="gradient_1">
      <stop offset="0" stop-color="#FED100" />
      <stop offset="1" stop-color="#E36001" />
    </linearGradient>
    <linearGradient x1="0.432825" y1="0.0031600296" x2="0.54045" y2="1.01792" id="gradient_2">
      <stop offset="0" stop-color="#FCFCFC" />
      <stop offset="1" stop-color="#C3C9CD" />
    </linearGradient>
    <filter filterUnits="userSpaceOnUse" color-interpolation-filters="sRGB" id="filter_1">
      <feFlood flood-opacity="0" result="BackgroundImageFix" />
      <feColorMatrix in="SourceAlpha" type="matrix" values="0 0 0 0 0 0 0 0 0 0 0 0 0 0 0 0 0 0 127 0" />
      <feOffset dx="0" dy="2" />
      <feGaussianBlur stdDeviation="2" />
      <feColorMatrix type="matrix" values="0 0 0 0 0.39215687 0 0 0 0 0.39215687 0 0 0 0 0.39215687 0 0 0 0.49803922 0" />
      <feBlend mode="normal" in2="BackgroundImageFix" result="effect0_dropShadow" />
      <feBlend mode="normal" in="SourceGraphic" in2="effect0_dropShadow" result="shape" />
    </filter>
    <path d="M0 0L48 0L48 48L0 48L0 0Z" id="path_1" />
    <clipPath id="mask_1">
      <use xlink:href="#path_1" />
    </clipPath>
  </defs>
  <g filter="url(#filter_1)">
    <g id="svg" transform="translate(6 4)">
      <path d="M0 0L48 0L48 48L0 48L0 0Z" id="Background" fill="none" fill-rule="evenodd" stroke="none" />
      <g clip-path="url(#mask_1)">
        <path d="M8 0C3.582 0 0 3.582 0 8C0 12.418 3.582 16 8 16C12.418 16 16 12.418 16 8C16 3.582 12.418 0 8 0L8 0Z" transform="translate(4 5)" id="Shape" fill="url(#gradient_1)" fill-rule="evenodd" stroke="none" />
        <path d="M30 5C29.669 5 29.343 5.018 29.02 5.049C26.741 1.99 23.108 0 19 0C13.287 0 8.48 3.837 6.988 9.071C3.049 9.569 0 12.925 0 17C0 21.418 3.582 25 8 25C9.818 25 28.107 25 30 25C35.523 25 40 20.523 40 15C40 9.477 35.523 5 30 5L30 5Z" transform="translate(4 9)" id="Shape" fill="url(#gradient_2)" fill-rule="evenodd" stroke="none" />
        <path d="M3.41375 4.414C2.63275 5.195 1.36675 5.195 0.585751 4.414C-0.19525 3.633 -0.19525 2.367 0.585751 1.586C1.36675 0.805 4.99975 0 4.99975 0C4.99975 0 4.19475 3.633 3.41375 4.414L3.41375 4.414Z" transform="translate(28.000244 38)" id="Shape" fill="#199BE2" fill-rule="evenodd" stroke="none" />
        <path d="M3.41375 4.414C2.63275 5.195 1.36675 5.195 0.58575 4.414C-0.195251 3.633 -0.195251 2.367 0.58575 1.586C1.36675 0.805 4.99975 0 4.99975 0C4.99975 0 4.19475 3.633 3.41375 4.414L3.41375 4.414Z" transform="translate(11.000244 36)" id="Shape" fill="#199BE2" fill-rule="evenodd" stroke="none" />
        <path d="M3.41375 4.414C2.63275 5.195 1.36675 5.195 0.585751 4.414C-0.19525 3.633 -0.19525 2.367 0.585751 1.586C1.36675 0.805 4.99975 0 4.99975 0C4.99975 0 4.19475 3.633 3.41375 4.414L3.41375 4.414Z" transform="translate(18.000244 42)" id="Shape" fill="#199BE2" fill-rule="evenodd" stroke="none" />
      </g>
    </g>
  </g>
</svg>