<?xml version="1.0" encoding="utf-8"?>
<svg width="60px" height="60px" viewBox="0 0 60 60" version="1.1" xmlns:xlink="http://www.w3.org/1999/xlink" xmlns="http://www.w3.org/2000/svg">
  <defs>
    <radialGradient gradientUnits="objectBoundingBox" cx="67.75455%" cy="81.25454%" fx="67.75455%" fy="81.25454%" r="86.40454%" gradientTransform="translate(0.6775455,0.8125454),translate(-0.6775455,-0.8125454)" id="gradient_1">
      <stop offset="31.3%" stop-color="#FCFCFC" />
      <stop offset="46.5%" stop-color="#EFF0F1" />
      <stop offset="74.1%" stop-color="#CED1D3" />
      <stop offset="100%" stop-color="#AAAFB3" />
    </radialGradient>
    <radialGradient gradientUnits="objectBoundingBox" cx="67.75%" cy="81.25%" fx="67.75%" fy="81.25%" r="86.40001%" gradientTransform="translate(0.6775,0.8125),translate(-0.6775,-0.8125)" id="gradient_2">
      <stop offset="31.3%" stop-color="#9DA2A6" stop-opacity="0" />
      <stop offset="100%" stop-color="#9DA2A6" />
    </radialGradient>
    <radialGradient gradientUnits="objectBoundingBox" cx="67.74998%" cy="81.25%" fx="67.74998%" fy="81.25%" r="86.39999%" gradientTransform="translate(0.6774998,0.8125),translate(-0.6774998,-0.8125)" id="gradient_3">
      <stop offset="31.3%" stop-color="#9DA2A6" stop-opacity="0" />
      <stop offset="100%" stop-color="#9DA2A6" />
    </radialGradient>
    <linearGradient x1="0.432825" y1="0.0031599998" x2="0.54045" y2="1.01792" id="gradient_4">
      <stop offset="0" stop-color="#BAC0FF" />
      <stop offset="0.39799997" stop-color="#8A91E7" />
      <stop offset="0.79599994" stop-color="#6069D1" />
      <stop offset="1" stop-color="#5059C9" />
    </linearGradient>
    <filter filterUnits="userSpaceOnUse" color-interpolation-filters="sRGB" id="filter_1">
      <feFlood flood-opacity="0" result="BackgroundImageFix" />
      <feColorMatrix in="SourceAlpha" type="matrix" values="0 0 0 0 0 0 0 0 0 0 0 0 0 0 0 0 0 0 127 0" />
      <feOffset dx="0" dy="2" />
      <feGaussianBlur stdDeviation="2" />
      <feColorMatrix type="matrix" values="0 0 0 0 0.39215687 0 0 0 0 0.39215687 0 0 0 0 0.39215687 0 0 0 0.49803922 0" />
      <feBlend mode="normal" in2="BackgroundImageFix" result="effect0_dropShadow" />
      <feBlend mode="normal" in="SourceGraphic" in2="effect0_dropShadow" result="shape" />
    </filter>
    <path d="M0 0L48 0L48 48L0 48L0 0Z" id="path_1" />
    <clipPath id="mask_1">
      <use xlink:href="#path_1" />
    </clipPath>
  </defs>
  <g filter="url(#filter_1)">
    <g id="svg" transform="translate(6 4)">
      <path d="M0 0L48 0L48 48L0 48L0 0Z" id="Background" fill="none" fill-rule="evenodd" stroke="none" />
      <g clip-path="url(#mask_1)">
        <path d="M3.41375 4.414C2.63275 5.195 1.36675 5.195 0.585751 4.414C-0.19525 3.633 -0.19525 2.367 0.585751 1.586C1.36675 0.805 4.99975 0 4.99975 0C4.99975 0 4.19475 3.633 3.41375 4.414L3.41375 4.414Z" transform="translate(19.000244 43)" id="Shape" fill="#199BE2" fill-rule="evenodd" stroke="none" />
        <path d="M3.41375 4.414C2.63275 5.195 1.36675 5.195 0.58575 4.414C-0.195251 3.633 -0.195251 2.367 0.58575 1.586C1.36675 0.805 4.99975 0 4.99975 0C4.99975 0 4.19475 3.633 3.41375 4.414L3.41375 4.414Z" transform="translate(12.000244 35)" id="Shape" fill="#199BE2" fill-rule="evenodd" stroke="none" />
        <path d="M3.41375 4.414C2.63275 5.195 1.36675 5.195 0.585751 4.414C-0.19525 3.633 -0.19525 2.367 0.585751 1.586C1.36675 0.805 4.99975 0 4.99975 0C4.99975 0 4.19475 3.633 3.41375 4.414L3.41375 4.414Z" transform="translate(29.000244 37)" id="Shape" fill="#199BE2" fill-rule="evenodd" stroke="none" />
        <path d="M11 0C4.925 0 0 4.925 0 11C0 17.075 4.925 22 11 22C17.075 22 22 17.075 22 11C22 4.925 17.075 0 11 0L11 0Z" transform="translate(4 0)" id="Shape" fill="url(#gradient_1)" fill-rule="evenodd" stroke="none" />
        <path d="M2 0C0.895 0 0 0.895 0 2C0 3.105 0.895 4 2 4C3.105 4 4 3.105 4 2C4 0.895 3.105 0 2 0L2 0Z" transform="translate(12 3)" id="Shape" fill="url(#gradient_2)" fill-rule="evenodd" stroke="none" />
        <path d="M1 0C0.448 0 0 0.448 0 1C0 1.552 0.448 2 1 2C1.552 2 2 1.552 2 1C2 0.448 1.552 0 1 0L1 0Z" transform="translate(8 10)" id="Shape" fill="url(#gradient_3)" fill-rule="evenodd" stroke="none" />
        <path d="M30 5C29.669 5 29.343 5.018 29.02 5.049C26.741 1.99 23.108 0 19 0C13.287 0 8.48 3.837 6.988 9.071C3.049 9.569 0 12.925 0 17C0 21.418 3.582 25 8 25C9.818 25 28.107 25 30 25C35.523 25 40 20.523 40 15C40 9.477 35.523 5 30 5L30 5Z" transform="translate(4 8)" id="Shape" fill="url(#gradient_4)" fill-rule="evenodd" stroke="none" />
      </g>
    </g>
  </g>
</svg>