<?xml version="1.0" encoding="utf-8"?>
<svg width="60px" height="60px" viewBox="0 0 60 60" version="1.1" xmlns:xlink="http://www.w3.org/1999/xlink" xmlns="http://www.w3.org/2000/svg">
  <defs>
    <linearGradient x1="0.032124996" y1="0.032124996" x2="0.8528125" y2="0.8528125" id="gradient_1">
      <stop offset="0" stop-color="#FED100" />
      <stop offset="1" stop-color="#E36001" />
    </linearGradient>
    <linearGradient x1="0.432825" y1="0.0031599998" x2="0.54045" y2="1.01792" id="gradient_2">
      <stop offset="0" stop-color="#FCFCFC" />
      <stop offset="1" stop-color="#C3C9CD" />
    </linearGradient>
    <filter filterUnits="userSpaceOnUse" color-interpolation-filters="sRGB" id="filter_1">
      <feFlood flood-opacity="0" result="BackgroundImageFix" />
      <feColorMatrix in="SourceAlpha" type="matrix" values="0 0 0 0 0 0 0 0 0 0 0 0 0 0 0 0 0 0 127 0" />
      <feOffset dx="0" dy="2" />
      <feGaussianBlur stdDeviation="2" />
      <feColorMatrix type="matrix" values="0 0 0 0 0.39215687 0 0 0 0 0.39215687 0 0 0 0 0.39215687 0 0 0 0.49803922 0" />
      <feBlend mode="normal" in2="BackgroundImageFix" result="effect0_dropShadow" />
      <feBlend mode="normal" in="SourceGraphic" in2="effect0_dropShadow" result="shape" />
    </filter>
    <path d="M0 0L48 0L48 48L0 48L0 0Z" id="path_1" />
    <clipPath id="mask_1">
      <use xlink:href="#path_1" />
    </clipPath>
  </defs>
  <g filter="url(#filter_1)">
    <g id="svg" transform="translate(6 4)">
      <path d="M0 0L48 0L48 48L0 48L0 0Z" id="Background" fill="none" fill-rule="evenodd" stroke="none" filter="url(#filter_1)" />
      <g clip-path="url(#mask_1)">
        <path d="M8 0C3.582 0 0 3.582 0 8C0 12.418 3.582 16 8 16C12.418 16 16 12.418 16 8C16 3.582 12.418 0 8 0L8 0Z" transform="translate(4 7)" id="Shape" fill="url(#gradient_1)" fill-rule="evenodd" stroke="none" />
        <path d="M30 5C29.669 5 29.343 5.018 29.02 5.049C26.741 1.99 23.108 0 19 0C13.287 0 8.48 3.837 6.988 9.071C3.049 9.569 0 12.925 0 17C0 21.418 3.582 25 8 25C9.818 25 28.107 25 30 25C35.523 25 40 20.523 40 15C40 9.477 35.523 5 30 5L30 5Z" transform="translate(4 11)" id="Shape" fill="url(#gradient_2)" fill-rule="evenodd" stroke="none" />
        <path d="M4 2C4 3.104 3.104 4 2 4C0.896 4 0 4.896 0 6C0 7.104 0.896 8 2 8L24 8C25.105 8 26 7.105 26 6C26 4.895 25.105 4 24 4L19 4C17.896 4 17 3.104 17 2C17 0.896 17.896 0 19 0C15.039 0 6.598 0 2 0C3.104 0 4 0.896 4 2L4 2Z" transform="translate(13 36)" id="Shape" fill="#C1C5C8" fill-rule="evenodd" stroke="none" />
        <path d="M11.999 0L11.981 0L7.986 0C6.161 2.425 3.268 4 0 4L12 4C13.104 4 14 3.104 14 2C14 0.896 13.103 0 11.999 0L11.999 0Z" transform="translate(34.000977 32)" id="Shape" fill="#C1C5C8" fill-rule="evenodd" stroke="none" />
        <path d="M31.986 8L16 8C14.896 8 14 7.104 14 6C14 4.898 14.89 4.006 15.99 4.001L18 4.001C19.104 4.001 20 3.105 20 2.001L20 2C20 0.896 19.104 0 18 0L4 0L4 0.000999451C2.896 0.000999451 2 0.896999 2 2.001C2 3.105 2.896 4.001 4 4.001L4 4L6 4C7.105 4 8 4.895 8 6C8 7.105 7.105 8 6 8L2 8C0.895001 8 0 8.895 0 10C0 11.105 0.895001 12 2 12C2.38 12 3.484 12 5 12C9.598 12 18.039 12 22 12C22.989 12 23.701 12 24 12C27.268 12 30.162 10.425 31.986 8L31.986 8Z" transform="translate(10 24)" id="Shape" fill="#EBE9E9" fill-rule="evenodd" stroke="none" />
      </g>
    </g>
  </g>
</svg>