<?xml version="1.0" encoding="utf-8"?>
<svg width="60px" height="60px" viewBox="0 0 60 60" version="1.1" xmlns:xlink="http://www.w3.org/1999/xlink" xmlns="http://www.w3.org/2000/svg">
  <defs>
    <radialGradient gradientUnits="objectBoundingBox" cx="67.75455%" cy="81.254555%" fx="67.75455%" fy="81.254555%" r="86.40454%" gradientTransform="translate(0.6775455,0.81254554),translate(-0.6775455,-0.81254554)" id="gradient_1">
      <stop offset="31.3%" stop-color="#FCFCFC" />
      <stop offset="46.5%" stop-color="#EFF0F1" />
      <stop offset="74.1%" stop-color="#CED1D3" />
      <stop offset="100%" stop-color="#AAAFB3" />
    </radialGradient>
    <radialGradient gradientUnits="objectBoundingBox" cx="67.75%" cy="81.25%" fx="67.75%" fy="81.25%" r="86.40001%" gradientTransform="translate(0.6775,0.8125),translate(-0.6775,-0.8125)" id="gradient_2">
      <stop offset="31.3%" stop-color="#9DA2A6" stop-opacity="0" />
      <stop offset="100%" stop-color="#9DA2A6" />
    </radialGradient>
    <radialGradient gradientUnits="objectBoundingBox" cx="67.74998%" cy="81.25%" fx="67.74998%" fy="81.25%" r="86.39999%" gradientTransform="translate(0.6774998,0.8125),translate(-0.6774998,-0.8125)" id="gradient_3">
      <stop offset="31.3%" stop-color="#9DA2A6" stop-opacity="0" />
      <stop offset="100%" stop-color="#9DA2A6" />
    </radialGradient>
    <linearGradient x1="0.432825" y1="0.0031599998" x2="0.54045" y2="1.01792" id="gradient_4">
      <stop offset="0" stop-color="#BAC0FF" />
      <stop offset="0.39799997" stop-color="#8A91E7" />
      <stop offset="0.79599994" stop-color="#6069D1" />
      <stop offset="1" stop-color="#5059C9" />
    </linearGradient>
    <filter filterUnits="userSpaceOnUse" color-interpolation-filters="sRGB" id="filter_1">
      <feFlood flood-opacity="0" result="BackgroundImageFix" />
      <feColorMatrix in="SourceAlpha" type="matrix" values="0 0 0 0 0 0 0 0 0 0 0 0 0 0 0 0 0 0 127 0" />
      <feOffset dx="0" dy="2" />
      <feGaussianBlur stdDeviation="2" />
      <feColorMatrix type="matrix" values="0 0 0 0 0.39215687 0 0 0 0 0.39215687 0 0 0 0 0.39215687 0 0 0 0.49803922 0" />
      <feBlend mode="normal" in2="BackgroundImageFix" result="effect0_dropShadow" />
      <feBlend mode="normal" in="SourceGraphic" in2="effect0_dropShadow" result="shape" />
    </filter>
    <path d="M0 0L48 0L48 48L0 48L0 0Z" id="path_1" />
    <clipPath id="mask_1">
      <use xlink:href="#path_1" />
    </clipPath>
  </defs>
  <g filter="url(#filter_1)">
    <g id="svg" transform="translate(6 4)">
      <path d="M0 0L48 0L48 48L0 48L0 0Z" id="Background" fill="none" fill-rule="evenodd" stroke="none" />
      <g clip-path="url(#mask_1)">
        <path d="M11 0C4.925 0 0 4.925 0 11C0 17.075 4.925 22 11 22C17.075 22 22 17.075 22 11C22 4.925 17.075 0 11 0L11 0Z" transform="translate(4 6)" id="Shape" fill="url(#gradient_1)" fill-rule="evenodd" stroke="none" />
        <path d="M2 0C0.895 0 0 0.895 0 2C0 3.105 0.895 4 2 4C3.105 4 4 3.105 4 2C4 0.895 3.105 0 2 0L2 0Z" transform="translate(12 9)" id="Shape" fill="url(#gradient_2)" fill-rule="evenodd" stroke="none" />
        <path d="M1 0C0.448 0 0 0.448 0 1C0 1.552 0.448 2 1 2C1.552 2 2 1.552 2 1C2 0.448 1.552 0 1 0L1 0Z" transform="translate(8 16)" id="Shape" fill="url(#gradient_3)" fill-rule="evenodd" stroke="none" />
        <path d="M30 5C29.669 5 29.343 5.018 29.02 5.049C26.741 1.99 23.108 0 19 0C13.287 0 8.48 3.837 6.988 9.071C3.049 9.569 0 12.925 0 17C0 21.418 3.582 25 8 25C9.818 25 28.107 25 30 25C35.523 25 40 20.523 40 15C40 9.477 35.523 5 30 5L30 5Z" transform="translate(4 13)" id="Shape" fill="url(#gradient_4)" fill-rule="evenodd" stroke="none" />
        <path d="M4 2C4 3.104 3.104 4 2 4C0.896 4 0 4.896 0 6C0 7.104 0.896 8 2 8L24 8C25.105 8 26 7.105 26 6C26 4.895 25.105 4 24 4L19 4C17.896 4 17 3.104 17 2C17 0.896 17.896 0 19 0C15.039 0 6.598 0 2 0C3.104 0 4 0.896 4 2L4 2Z" transform="translate(13 38)" id="Shape" fill="#5059C9" fill-rule="evenodd" stroke="none" />
        <path d="M11.999 0L11.981 0L7.986 0C6.161 2.425 3.268 4 0 4L12 4C13.104 4 14 3.104 14 2C14 0.896 13.103 0 11.999 0L11.999 0Z" transform="translate(34.000977 34)" id="Shape" fill="#5059C9" fill-rule="evenodd" stroke="none" />
        <path d="M31.986 8L16 8C14.896 8 14 7.104 14 6C14 4.898 14.89 4.006 15.99 4.001L18 4.001C19.104 4.001 20 3.105 20 2.001L20 2C20 0.896 19.104 0 18 0L4 0L4 0.000999451C2.896 0.000999451 2 0.896999 2 2.001C2 3.105 2.896 4.001 4 4.001L4 4L6 4C7.105 4 8 4.895 8 6C8 7.105 7.105 8 6 8L2 8C0.895001 8 0 8.895 0 10C0 11.105 0.895001 12 2 12C2.38 12 3.484 12 5 12C9.598 12 18.039 12 22 12C22.989 12 23.701 12 24 12C27.268 12 30.162 10.425 31.986 8L31.986 8Z" transform="translate(10 26)" id="Shape" fill="#8E95F0" fill-rule="evenodd" stroke="none" />
      </g>
    </g>
  </g>
</svg>